<svg width="48" height="48" viewBox="0 0 48 48" fill="none" xmlns="http://www.w3.org/2000/svg">
<rect x="0.000976562" width="48" height="48" rx="24" fill="#F17C21"/>
<path d="M24.001 15.8072C26.6516 15.8072 27.013 15.8072 28.0974 15.8072C29.0612 15.8072 29.5431 16.0482 29.9046 16.1687C30.3865 16.4096 30.748 16.5301 31.1094 16.8916C31.4709 17.253 31.7118 17.6145 31.8323 18.0964C31.9528 18.4578 32.0733 18.9398 32.1938 19.9036C32.1938 20.988 32.1938 21.2289 32.1938 24C32.1938 26.7711 32.1938 27.0121 32.1938 28.0964C32.1938 29.0602 31.9528 29.5422 31.8323 29.9036C31.5913 30.3855 31.4709 30.747 31.1094 31.1084C30.748 31.4699 30.3865 31.7108 29.9046 31.8313C29.5431 31.9518 29.0612 32.0723 28.0974 32.1928C27.013 32.1928 26.7721 32.1928 24.001 32.1928C21.2299 32.1928 20.9889 32.1928 19.9046 32.1928C18.9407 32.1928 18.4588 31.9518 18.0974 31.8313C17.6154 31.5904 17.254 31.4699 16.8925 31.1084C16.5311 30.747 16.2901 30.3855 16.1697 29.9036C16.0492 29.5422 15.9287 29.0602 15.8082 28.0964C15.8082 27.0121 15.8082 26.7711 15.8082 24C15.8082 21.2289 15.8082 20.988 15.8082 19.9036C15.8082 18.9398 16.0492 18.4578 16.1697 18.0964C16.4106 17.6145 16.5311 17.253 16.8925 16.8916C17.254 16.5301 17.6154 16.2892 18.0974 16.1687C18.4588 16.0482 18.9407 15.9277 19.9046 15.8072C20.9889 15.8072 21.3504 15.8072 24.001 15.8072ZM24.001 14C21.2299 14 20.9889 14 19.9046 14C18.8203 14 18.0974 14.241 17.495 14.4819C16.8925 14.7229 16.2901 15.0843 15.6877 15.6867C15.0853 16.2892 14.8444 16.7711 14.4829 17.494C14.2419 18.0964 14.1215 18.8193 14.001 19.9036C14.001 20.988 14.001 21.3494 14.001 24C14.001 26.7711 14.001 27.0121 14.001 28.0964C14.001 29.1807 14.2419 29.9036 14.4829 30.506C14.7239 31.1084 15.0853 31.7108 15.6877 32.3133C16.2901 32.9157 16.7721 33.1566 17.495 33.5181C18.0974 33.759 18.8203 33.8795 19.9046 34C20.9889 34 21.3504 34 24.001 34C26.6516 34 27.013 34 28.0974 34C29.1817 34 29.9046 33.759 30.507 33.5181C31.1094 33.2771 31.7118 32.9157 32.3142 32.3133C32.9166 31.7108 33.1576 31.2289 33.5191 30.506C33.76 29.9036 33.8805 29.1807 34.001 28.0964C34.001 27.0121 34.001 26.6506 34.001 24C34.001 21.3494 34.001 20.988 34.001 19.9036C34.001 18.8193 33.76 18.0964 33.5191 17.494C33.2781 16.8916 32.9166 16.2892 32.3142 15.6867C31.7118 15.0843 31.2299 14.8434 30.507 14.4819C29.9046 14.241 29.1817 14.1205 28.0974 14C27.013 14 26.7721 14 24.001 14Z" fill="white"/>
<path d="M24.001 18.8193C21.1094 18.8193 18.8203 21.1084 18.8203 24C18.8203 26.8916 21.1094 29.1807 24.001 29.1807C26.8925 29.1807 29.1817 26.8916 29.1817 24C29.1817 21.1084 26.8925 18.8193 24.001 18.8193ZM24.001 27.3735C22.1937 27.3735 20.6275 25.9277 20.6275 24C20.6275 22.1928 22.0733 20.6265 24.001 20.6265C25.8082 20.6265 27.3745 22.0723 27.3745 24C27.3745 25.8072 25.8082 27.3735 24.001 27.3735Z" fill="white"/>
<path d="M29.3022 19.9036C29.9676 19.9036 30.507 19.3642 30.507 18.6988C30.507 18.0334 29.9676 17.494 29.3022 17.494C28.6368 17.494 28.0974 18.0334 28.0974 18.6988C28.0974 19.3642 28.6368 19.9036 29.3022 19.9036Z" fill="white"/>
</svg>
