<svg width="48" height="48" viewBox="0 0 48 48" fill="none" xmlns="http://www.w3.org/2000/svg">
<rect x="0.000976562" width="48" height="48" rx="24" fill="#F17C21"/>
<g clip-path="url(#clip0_12_656)">
<path d="M27.1626 15.9378V18.3417H25.7399C25.2166 18.3417 24.8622 18.4508 24.6769 18.6688C24.4916 18.8869 24.3989 19.2139 24.3989 19.65V21.3835H27.0808L26.7211 24.0818H24.3989V31.0156H21.6025V24.0818H19.2803V21.3835H21.6025V19.3884C21.6025 18.2545 21.9186 17.3769 22.551 16.7555C23.1833 16.134 24.0282 15.8233 25.0857 15.8233C25.9797 15.8233 26.672 15.8615 27.1626 15.9378Z" fill="#FFF0E3"/>
</g>
<defs>
<clipPath id="clip0_12_656">
<rect width="9.44" height="48" fill="white" transform="matrix(1 0 0 -1 19.2803 48)"/>
</clipPath>
</defs>
</svg>
