<svg width="48" height="48" viewBox="0 0 48 48" fill="none" xmlns="http://www.w3.org/2000/svg">
<rect width="48" height="48" rx="24" fill="#F17C21"/>
<path fill-rule="evenodd" clip-rule="evenodd" d="M16.381 24C16.381 19.5291 20.0053 15.9048 24.4762 15.9048C28.947 15.9048 32.5714 19.5291 32.5714 24C32.5714 28.4708 28.947 32.0952 24.4762 32.0952C22.8836 32.0952 21.4012 31.6363 20.1504 30.8439C19.9177 30.6964 19.6324 30.657 19.3684 30.7358L16.6264 31.5542L17.6588 29.1383C17.7808 28.8528 17.756 28.5258 17.5923 28.262C16.8245 27.0247 16.381 25.5656 16.381 24ZM24.4762 14C18.9534 14 14.4762 18.4771 14.4762 24C14.4762 25.7505 14.9268 27.3984 15.7187 28.8311L14.0766 32.6733C13.9315 33.013 13.9958 33.406 14.2417 33.6816C14.4876 33.9573 14.8708 34.0659 15.2248 33.9601L19.5099 32.6814C20.9737 33.5204 22.6702 34 24.4762 34C29.999 34 34.4761 29.5228 34.4761 24C34.4761 18.4771 29.999 14 24.4762 14ZM26.6595 26.0784L25.4079 26.9601C24.8217 26.6262 24.1736 26.1601 23.5235 25.51C22.8477 24.8342 22.3467 24.1365 21.9772 23.4965L22.7726 22.8213C23.114 22.5316 23.2074 22.0432 22.9971 21.6479L21.9836 19.7431C21.8472 19.4866 21.6011 19.3065 21.3154 19.2538C21.0296 19.2012 20.7355 19.2819 20.5166 19.4729L20.2161 19.7352C19.4935 20.3658 19.0662 21.4022 19.4204 22.4515C19.7876 23.5393 20.5713 25.2514 22.1767 26.8568C23.9039 28.5841 25.6584 29.2643 26.6844 29.5284C27.511 29.7412 28.2933 29.456 28.8445 29.0068L29.4079 28.5478C29.6488 28.3515 29.7788 28.0499 29.7562 27.7399C29.7334 27.4299 29.5608 27.1504 29.2938 26.9913L27.6954 26.0389C27.3725 25.8466 26.9668 25.8621 26.6595 26.0784Z" fill="white"/>
</svg>
