<svg width="48" height="48" viewBox="0 0 48 48" fill="none" xmlns="http://www.w3.org/2000/svg">
<rect x="0.000976562" width="48" height="48" rx="24" fill="#F17C21"/>
<path d="M14.704 13H16.6378L17.8835 16.8331H18.0039L19.1919 13H21.1423L18.9077 18.6105V22.5906H16.9882V18.789L14.704 13ZM21.3454 17.1302C21.3454 16.5675 21.5766 16.1202 22.0394 15.7863C22.5016 15.4525 23.1229 15.2856 23.9034 15.2856C24.6143 15.2856 25.1964 15.462 25.6499 15.8136C26.1046 16.1653 26.3313 16.6178 26.3313 17.1722V20.9255C26.3313 21.547 26.1082 22.0352 25.6636 22.389C25.2184 22.7428 24.6053 22.9203 23.8255 22.9203C23.074 22.9203 22.473 22.7376 22.0218 22.3723C21.5712 22.0069 21.3454 21.5156 21.3454 20.8971V17.1302ZM23.1132 21.0336C23.1132 21.2341 23.1738 21.3874 23.2964 21.4977C23.4187 21.6069 23.5932 21.6604 23.8203 21.6604C24.0531 21.6604 24.2381 21.6058 24.3749 21.4945C24.5119 21.3822 24.5807 21.2289 24.5807 21.0336V17.0756C24.5807 16.917 24.5103 16.789 24.3707 16.6913C24.2311 16.5937 24.0476 16.5443 23.8203 16.5443C23.6111 16.5443 23.4405 16.5937 23.3098 16.6913C23.1785 16.789 23.1132 16.917 23.1132 17.0756V21.0336ZM32.6137 15.4021V22.6694H30.8935V21.8672C30.5759 22.1633 30.2463 22.388 29.9029 22.5434C29.5602 22.6967 29.2268 22.7744 28.9045 22.7744C28.5066 22.7744 28.2063 22.6662 28.0047 22.4499C27.8031 22.2336 27.7024 21.9092 27.7024 21.4767V15.4021H29.4231V20.9728C29.4231 21.146 29.4594 21.2699 29.5313 21.3475C29.6038 21.4242 29.7203 21.463 29.8814 21.463C30.0084 21.463 30.1686 21.4116 30.3611 21.3098C30.5548 21.2079 30.7322 21.0777 30.8934 20.9192V15.4021H32.6137ZM31.0017 28.2641C30.9172 28.1707 30.7827 28.1224 30.598 28.1224C30.4048 28.1224 30.2663 28.1707 30.1823 28.2641C30.0983 28.3586 30.0563 28.515 30.0563 28.7334V29.1859H31.1282V28.7334C31.1282 28.515 31.0862 28.3586 31.0017 28.2641ZM25.9177 31.671C26.01 31.7088 26.1077 31.7266 26.2106 31.7266C26.3596 31.7266 26.4678 31.6909 26.5381 31.6174C26.6084 31.5449 26.6431 31.4242 26.6431 31.2584V28.6421C26.6431 28.4657 26.6 28.3324 26.514 28.241C26.4273 28.1497 26.3009 28.1045 26.1371 28.1045C26.0504 28.1045 25.9649 28.1213 25.8803 28.1549C25.7958 28.1896 25.7124 28.2431 25.63 28.3145V31.4872C25.7287 31.5733 25.8247 31.6342 25.9177 31.671ZM33.8973 26.1318C33.8973 24.872 32.6032 23.8504 31.0085 23.8504C28.7334 23.7738 26.4054 23.7402 24.0303 23.7444C21.656 23.7402 19.3278 23.7737 17.052 23.8504C15.4581 23.8504 14.1641 24.872 14.1641 26.1318C14.0683 27.1282 14.0268 28.1255 14.0305 29.1229C14.0268 30.1203 14.0683 31.1176 14.1641 32.1151C14.1641 33.3738 15.4581 34.3953 17.052 34.3953C19.3278 34.4709 21.656 34.5046 24.0303 34.5014C26.4054 34.5046 28.7334 34.4709 31.0085 34.3953C32.6032 34.3953 33.8973 33.3738 33.8973 32.1151C33.9928 31.1176 34.0342 30.1203 34.03 29.1229C34.0342 28.1255 33.9928 27.1282 33.8973 26.1318ZM18.3604 32.4804V32.556H16.994V32.4804V26.5129H15.5803V26.4384V25.4873V25.4127H19.7743V25.4873V26.4384V26.5129H18.3604V32.4804ZM23.221 27.3413V32.4804V32.556H22.0079V32.4804V31.9796C21.7837 32.1927 21.5514 32.3534 21.3097 32.4647C21.0675 32.5749 20.8328 32.6305 20.605 32.6305C20.3247 32.6305 20.1134 32.5528 19.9711 32.3985C19.8286 32.2431 19.7575 32.0101 19.7575 31.6993V31.6237V27.3413V27.2667H20.9711V27.3413V31.2636C20.9711 31.3864 20.9963 31.4767 21.047 31.5313C21.0982 31.5869 21.1806 31.6142 21.2942 31.6142C21.3837 31.6142 21.4963 31.5775 21.6328 31.5051C21.7688 31.4315 21.8937 31.3381 22.0079 31.2247V27.3413V27.2667H23.221V27.3413ZM27.8919 28.5833V31.4001V31.4757C27.8919 31.8463 27.7969 32.1297 27.6069 32.3271C27.4168 32.5224 27.1418 32.6211 26.7827 32.6211C26.5454 32.6211 26.3345 32.5833 26.1486 32.5077C25.9623 32.4311 25.7896 32.3134 25.63 32.1549V32.4804V32.556H24.4053V32.4804V25.4872V25.4127H25.63V25.4872V27.6877C25.7938 27.5281 25.967 27.4074 26.1508 27.3255C26.335 27.2426 26.5214 27.2006 26.7093 27.2006C27.0925 27.2006 27.3864 27.3119 27.5885 27.5345C27.7906 27.757 27.8919 28.0815 27.8919 28.5077V28.5833ZM32.377 28.7429V29.9954V30.071H30.0563V30.9791C30.0563 31.2531 30.0962 31.4432 30.176 31.5492C30.2563 31.6553 30.3928 31.7088 30.5859 31.7088C30.787 31.7088 30.9282 31.6636 31.0085 31.5733C31.0883 31.4841 31.1282 31.2857 31.1282 30.9791V30.6925V30.6169H32.377V30.6925V31.0085V31.0841C32.377 31.6185 32.2253 32.0206 31.9209 32.2914C31.6169 32.5623 31.1628 32.6967 30.5586 32.6967C30.0153 32.6967 29.5881 32.5529 29.2757 32.2663C28.9639 31.9796 28.8075 31.5849 28.8075 31.0841V31.0085V28.7429V28.6684C28.8075 28.2159 28.9791 27.8473 29.3214 27.5618C29.6641 27.2772 30.1078 27.1345 30.6505 27.1345C31.2059 27.1345 31.6321 27.2668 31.9304 27.5302C32.2275 27.7938 32.377 28.1739 32.377 28.6684V28.7429H32.377Z" fill="white"/>
</svg>
